<svg xmlns="http://www.w3.org/2000/svg" width="20" height="20" viewBox="0 0 20 20">
    <path fill="#BABECC" fill-rule="nonzero" d="M10 0C4.477 0 0 4.477 0 10s4.477 10 10 10 10-4.477 10-10S15.523 0 10 0zm-.08 1.156c4.499.004 7.754 3.027 8.736 7.005l-4.354 1.127a6.433 6.433 0 0 0-.516-1.36c-.946 1.988-2.258 4.649-2.98 6.258l-1.504.741-.109-1.671c1.086-1.502 2.885-4.15 4.172-5.967C12.364 6.27 11.297 5.82 10 5.811c-2.093 0-3.72 1.628-4.302 3.477L1.344 8.16c1.214-4.443 4.47-6.769 8.576-7.005zM14.36 3.4l-1.38 2.442c.315.227.609.487.864.778.565-.78.978-1.308 1.04-1.272.066.038-.234.74-.69 1.722.241.347.444.724.595 1.127L17.5 7.5a7.909 7.909 0 0 0-3.14-4.099z"/>
</svg>
