<svg xmlns="http://www.w3.org/2000/svg" width="13" height="16" viewBox="0 0 13 16">
    <path fill="#BABECC" fill-rule="nonzero" stroke="#BABECC" stroke-width=".3" d="M11.088 5.875c1.054 0 1.912.841 1.912 1.875v6.375C13 15.159 12.142 16 11.088 16H1.912C.858 16 0 15.159 0 14.125V7.75c0-1.034.858-1.875 1.912-1.875h1.146v-2.57C3.058 1.483 4.6 0 6.498 0 8.397 0 9.94 1.483 9.94 3.305v2.57h1.148zm-6.756-2.57v2.57h4.333v-2.57c0-1.133-.971-2.055-2.166-2.055-1.195 0-2.167.922-2.167 2.055zm7.393 10.82V7.75a.632.632 0 0 0-.637-.625H1.912a.632.632 0 0 0-.637.625v6.375c0 .345.285.625.637.625h9.176c.352 0 .637-.28.637-.625zM6.5 8.937c.651 0 1.179.518 1.179 1.157 0 .409-.217.767-.543.973v1.37a.631.631 0 0 1-.637.626.631.631 0 0 1-.637-.626v-1.371a1.15 1.15 0 0 1-.54-.972c0-.639.527-1.156 1.178-1.156z"/>
</svg>
