<svg xmlns="http://www.w3.org/2000/svg" width="22" height="22" viewBox="0 0 22 22">
    <path fill="#19233B" fill-rule="nonzero" d="M20.875 10.461V8.096A1.182 1.182 0 0 1 22 9.276c0 .64-.502 1.158-1.125 1.185zM9.96 8.096h10.088v2.365H9.96V8.096zm8.588 3.192v9.469c0 .684-.552 1.235-1.241 1.24H4.694a1.246 1.246 0 0 1-1.241-1.24v-2.36H14.41a2.06 2.06 0 0 0 2.063-2.068v-1.17a2.064 2.064 0 0 0-2.063-2.067H3.453V1.24C3.453.55 4.01 0 4.693 0h9.134v2.956c0 1.141.926 2.068 2.068 2.068h2.653v2.244H9.536a.395.395 0 0 0-.193.045l-3.11 1.599a.405.405 0 0 0-.227.364c0 .16.088.297.226.37l3.11 1.593c.061.033.128.05.194.05h9.012zM14.654.628l3.353 3.569h-2.112a1.24 1.24 0 0 1-1.241-1.241V.629zM9.122 8.356v1.842l-1.798-.921 1.798-.921zm-6.695 6.678v-1.114h.711v1.908a.413.413 0 1 0 .827 0v-1.908h.712v1.114a.413.413 0 1 0 .827 0v-1.114h.717v1.908a.413.413 0 1 0 .827 0v-1.908h.712v1.114a.413.413 0 1 0 .827 0v-1.114H9.3v1.908c0 .226.187.414.413.414a.417.417 0 0 0 .414-.414v-1.908h.711v1.114a.413.413 0 1 0 .827 0v-1.114h.712v1.908a.413.413 0 1 0 .827 0v-1.908h1.208c.684 0 1.235.551 1.24 1.24v1.17a1.242 1.242 0 0 1-1.24 1.24H1.24A1.239 1.239 0 0 1 0 16.33V15.16c0-.69.557-1.24 1.241-1.24h.358v1.113c0 .226.188.414.414.414a.417.417 0 0 0 .414-.414z"/>
</svg>
