<svg xmlns="http://www.w3.org/2000/svg" width="22" height="22" viewBox="0 0 22 22">
    <path fill="#BABECC" fill-rule="nonzero" d="M0 20.764a1.203 1.203 0 0 1 1.166-1.236h.981v-7.13c.202.047.407.077.614.091h.292c.525 0 1.045-.1 1.534-.294v7.333H17.43v-7.32a4.184 4.184 0 0 0 1.533.296h.293c.207-.015.413-.045.615-.091v7.115h.982c.644.04 1.146.582 1.146 1.236s-.502 1.195-1.146 1.236H1.166A1.203 1.203 0 0 1 0 20.764zm5.962-3.295v.565c0 .132.106.239.236.239h9.619c.13 0 .236-.107.236-.24v-.564c0-.687-.408-1.307-1.034-1.573.417-.286.6-.815.452-1.302a1.148 1.148 0 0 0-1.096-.82c-.503 0-.948.332-1.096.82a1.17 1.17 0 0 0 .452 1.302c-.235.1-.445.252-.613.445a2.288 2.288 0 0 0-1.241-1.28 1.577 1.577 0 0 0 .609-1.755 1.548 1.548 0 0 0-1.477-1.105c-.679 0-1.278.448-1.477 1.105-.2.657.047 1.37.608 1.756a2.288 2.288 0 0 0-1.236 1.274 1.685 1.685 0 0 0-.613-.444c.416-.287.6-.815.452-1.303a1.148 1.148 0 0 0-1.096-.82c-.504 0-.948.332-1.096.82a1.17 1.17 0 0 0 .452 1.303 1.705 1.705 0 0 0-1.04 1.577zm13.002-6.318h.2c1.916-.132 3.068-2.231 2.282-4.005L18.679.901A1.518 1.518 0 0 0 17.294 0H4.724c-.598 0-1.14.356-1.385.908L.57 7.138c-.788 1.775.366 3.874 2.282 4.005h.2c1.14 0 2.176-.668 2.66-1.714a2.933 2.933 0 0 0 2.631 1.719 2.931 2.931 0 0 0 2.665-1.666 2.931 2.931 0 0 0 2.661 1.67 2.933 2.933 0 0 0 2.635-1.713 2.935 2.935 0 0 0 2.659 1.712z"/>
</svg>
